<mxfile host="65bd71144e">
    <diagram id="JmBZI9c73Gt2OLMM4qta" name="Page-1">
        <mxGraphModel dx="773" dy="847" grid="1" gridSize="10" guides="1" tooltips="1" connect="1" arrows="1" fold="1" page="1" pageScale="1" pageWidth="1100" pageHeight="1100" math="0" shadow="0">
            <root>
                <mxCell id="0"/>
                <mxCell id="1" parent="0"/>
                <mxCell id="27" value="&lt;font color=&quot;#f7ffff&quot;&gt;Challenger&amp;nbsp;&lt;br&gt;User&lt;/font&gt;" style="rhombus;whiteSpace=wrap;html=1;rounded=1;shadow=0;glass=0;sketch=0;strokeColor=default;fontSize=12;fontColor=#000000;" parent="1" vertex="1">
                    <mxGeometry x="55" y="15" width="80" height="110" as="geometry"/>
                </mxCell>
                <mxCell id="31" value="&lt;font color=&quot;#f7ffff&quot;&gt;Challenged User&lt;/font&gt;" style="rhombus;whiteSpace=wrap;html=1;rounded=1;shadow=0;glass=0;sketch=0;strokeColor=default;fontSize=12;fontColor=#000000;direction=west;" parent="1" vertex="1">
                    <mxGeometry x="330" y="15" width="80" height="110" as="geometry"/>
                </mxCell>
                <mxCell id="34" value="" style="endArrow=classic;html=1;fontSize=12;fontColor=#F7FFFF;exitX=1;exitY=0.5;exitDx=0;exitDy=0;entryX=1;entryY=0.5;entryDx=0;entryDy=0;" parent="1" source="27" target="31" edge="1">
                    <mxGeometry width="50" height="50" relative="1" as="geometry">
                        <mxPoint x="390" y="280" as="sourcePoint"/>
                        <mxPoint x="440" y="230" as="targetPoint"/>
                    </mxGeometry>
                </mxCell>
                <mxCell id="35" value="Challenge" style="shape=hexagon;perimeter=hexagonPerimeter2;whiteSpace=wrap;html=1;fixedSize=1;rounded=1;shadow=0;glass=0;sketch=0;strokeColor=default;fontSize=12;fontColor=#F7FFFF;" parent="1" vertex="1">
                    <mxGeometry x="170" y="30" width="120" height="80" as="geometry"/>
                </mxCell>
                <mxCell id="45" style="edgeStyle=none;html=1;exitX=0.5;exitY=1;exitDx=0;exitDy=0;fontSize=12;fontColor=#F7FFFF;entryX=0.137;entryY=-0.002;entryDx=0;entryDy=0;entryPerimeter=0;" parent="1" source="36" target="51" edge="1">
                    <mxGeometry relative="1" as="geometry">
                        <mxPoint x="370" y="320" as="targetPoint"/>
                    </mxGeometry>
                </mxCell>
                <mxCell id="36" value="Accepts Challenge" style="rounded=1;whiteSpace=wrap;html=1;glass=0;shadow=0;fillColor=#ffe6cc;strokeColor=#d79b00;fontColor=#000000;" parent="1" vertex="1">
                    <mxGeometry x="335" y="210" width="70" height="40" as="geometry"/>
                </mxCell>
                <mxCell id="43" style="edgeStyle=none;html=1;exitX=0.5;exitY=1;exitDx=0;exitDy=0;entryX=0.5;entryY=0;entryDx=0;entryDy=0;fontSize=12;fontColor=#F7FFFF;" parent="1" source="37" target="42" edge="1">
                    <mxGeometry relative="1" as="geometry"/>
                </mxCell>
                <mxCell id="37" value="Denies Challenge" style="rounded=1;whiteSpace=wrap;html=1;glass=0;shadow=0;fillColor=#ffe6cc;strokeColor=#d79b00;fontColor=#000000;" parent="1" vertex="1">
                    <mxGeometry x="60" y="210" width="70" height="40" as="geometry"/>
                </mxCell>
                <mxCell id="38" value="" style="endArrow=classic;html=1;fontSize=12;fontColor=#F7FFFF;exitX=0.375;exitY=1;exitDx=0;exitDy=0;entryX=0.5;entryY=0;entryDx=0;entryDy=0;" parent="1" source="35" target="37" edge="1">
                    <mxGeometry width="50" height="50" relative="1" as="geometry">
                        <mxPoint x="160" y="200" as="sourcePoint"/>
                        <mxPoint x="210" y="150" as="targetPoint"/>
                    </mxGeometry>
                </mxCell>
                <mxCell id="39" value="" style="endArrow=classic;html=1;fontSize=12;fontColor=#F7FFFF;exitX=0.625;exitY=1;exitDx=0;exitDy=0;entryX=0.5;entryY=0;entryDx=0;entryDy=0;" parent="1" source="35" target="36" edge="1">
                    <mxGeometry width="50" height="50" relative="1" as="geometry">
                        <mxPoint x="250" y="180" as="sourcePoint"/>
                        <mxPoint x="300" y="130" as="targetPoint"/>
                    </mxGeometry>
                </mxCell>
                <mxCell id="40" value="" style="endArrow=none;dashed=1;html=1;dashPattern=1 3;strokeWidth=2;fontSize=12;fontColor=#F7FFFF;entryX=0.5;entryY=1;entryDx=0;entryDy=0;exitX=0.5;exitY=0;exitDx=0;exitDy=0;" parent="1" source="41" target="35" edge="1">
                    <mxGeometry width="50" height="50" relative="1" as="geometry">
                        <mxPoint x="230" y="200" as="sourcePoint"/>
                        <mxPoint x="270" y="280" as="targetPoint"/>
                    </mxGeometry>
                </mxCell>
                <mxCell id="41" value="Update pvpBattle" style="shape=process;whiteSpace=wrap;html=1;backgroundOutline=1;rounded=1;shadow=0;glass=0;sketch=0;strokeColor=default;fontSize=12;fontColor=#F7FFFF;arcSize=13;" parent="1" vertex="1">
                    <mxGeometry x="170" y="220" width="120" height="30" as="geometry"/>
                </mxCell>
                <mxCell id="42" value="Update pvpBattle" style="shape=process;whiteSpace=wrap;html=1;backgroundOutline=1;rounded=1;shadow=0;glass=0;sketch=0;strokeColor=default;fontSize=12;fontColor=#F7FFFF;arcSize=13;" parent="1" vertex="1">
                    <mxGeometry x="35" y="320" width="120" height="30" as="geometry"/>
                </mxCell>
                <mxCell id="51" value="Start Initilizing Process" style="swimlane;whiteSpace=wrap;html=1;rounded=1;shadow=0;glass=0;sketch=0;strokeColor=default;fontSize=12;fontColor=#F7FFFF;" parent="1" vertex="1">
                    <mxGeometry x="260" y="360" width="760" height="200" as="geometry"/>
                </mxCell>
                <mxCell id="54" style="edgeStyle=none;html=1;exitX=1;exitY=0.5;exitDx=0;exitDy=0;entryX=0;entryY=0.5;entryDx=0;entryDy=0;fontSize=12;fontColor=#F7FFFF;" parent="51" source="52" target="53" edge="1">
                    <mxGeometry relative="1" as="geometry"/>
                </mxCell>
                <mxCell id="52" value="Grab Challenged User's Card&lt;br&gt;&lt;br&gt;Grab Challenger&lt;br&gt;User's Card" style="shape=process;whiteSpace=wrap;html=1;backgroundOutline=1;rounded=1;shadow=0;glass=0;sketch=0;strokeColor=default;fontSize=12;fontColor=#F7FFFF;arcSize=6;align=center;" parent="51" vertex="1">
                    <mxGeometry x="20" y="60" width="120" height="100" as="geometry"/>
                </mxCell>
                <mxCell id="56" value="" style="edgeStyle=none;html=1;fontSize=12;fontColor=#F7FFFF;" parent="51" source="53" target="55" edge="1">
                    <mxGeometry relative="1" as="geometry"/>
                </mxCell>
                <mxCell id="53" value="Set currentTurn to 0&lt;br&gt;Set status to on_going&lt;br&gt;Set turnCount to 0" style="shape=step;perimeter=stepPerimeter;whiteSpace=wrap;html=1;fixedSize=1;rounded=1;shadow=0;glass=0;sketch=0;strokeColor=default;fontSize=12;fontColor=#F7FFFF;arcSize=11;size=10;" parent="51" vertex="1">
                    <mxGeometry x="180" y="72.5" width="150" height="75" as="geometry"/>
                </mxCell>
                <mxCell id="58" value="" style="edgeStyle=none;html=1;fontSize=12;fontColor=#F7FFFF;" parent="51" source="55" target="57" edge="1">
                    <mxGeometry relative="1" as="geometry"/>
                </mxCell>
                <mxCell id="55" value="set battle_message = {}&lt;br&gt;set this.lastMove = &quot;&quot;;" style="shape=step;perimeter=stepPerimeter;whiteSpace=wrap;html=1;fixedSize=1;rounded=1;shadow=0;glass=0;sketch=0;strokeColor=default;fontSize=12;fontColor=#F7FFFF;arcSize=11;size=10;" parent="51" vertex="1">
                    <mxGeometry x="360" y="72.5" width="160" height="77.5" as="geometry"/>
                </mxCell>
                <mxCell id="57" value="initialize battle query properties" style="shape=step;perimeter=stepPerimeter;whiteSpace=wrap;html=1;fixedSize=1;rounded=1;shadow=0;glass=0;sketch=0;strokeColor=default;fontSize=12;fontColor=#F7FFFF;arcSize=11;size=10;" parent="51" vertex="1">
                    <mxGeometry x="550" y="71.25" width="160" height="77.5" as="geometry"/>
                </mxCell>
                <mxCell id="62" value="" style="endArrow=classic;html=1;fontSize=12;fontColor=#F7FFFF;" parent="1" edge="1">
                    <mxGeometry width="50" height="50" relative="1" as="geometry">
                        <mxPoint x="360" y="560" as="sourcePoint"/>
                        <mxPoint x="360" y="630" as="targetPoint"/>
                    </mxGeometry>
                </mxCell>
                <mxCell id="63" value="Update pvpBattle" style="shape=process;whiteSpace=wrap;html=1;backgroundOutline=1;rounded=1;shadow=0;glass=0;sketch=0;strokeColor=default;fontSize=12;fontColor=#F7FFFF;arcSize=13;" parent="1" vertex="1">
                    <mxGeometry x="870" y="280" width="120" height="30" as="geometry"/>
                </mxCell>
                <mxCell id="64" value="" style="endArrow=none;dashed=1;html=1;dashPattern=1 3;strokeWidth=2;fontSize=12;fontColor=#F7FFFF;entryX=0.5;entryY=1;entryDx=0;entryDy=0;exitX=0.877;exitY=-0.014;exitDx=0;exitDy=0;exitPerimeter=0;" parent="1" source="51" target="63" edge="1">
                    <mxGeometry width="50" height="50" relative="1" as="geometry">
                        <mxPoint x="900" y="370" as="sourcePoint"/>
                        <mxPoint x="950" y="320" as="targetPoint"/>
                    </mxGeometry>
                </mxCell>
                <mxCell id="69" style="edgeStyle=none;html=1;exitX=0.5;exitY=1;exitDx=0;exitDy=0;entryX=0.178;entryY=0.003;entryDx=0;entryDy=0;entryPerimeter=0;fontSize=12;fontColor=#F7FFFF;" parent="1" source="66" target="67" edge="1">
                    <mxGeometry relative="1" as="geometry"/>
                </mxCell>
                <mxCell id="66" value="Decide Who Goes first" style="shape=parallelogram;perimeter=parallelogramPerimeter;whiteSpace=wrap;html=1;fixedSize=1;rounded=1;shadow=0;glass=0;sketch=0;strokeColor=default;fontSize=12;fontColor=#F7FFFF;" parent="1" vertex="1">
                    <mxGeometry x="290" y="630" width="150" height="60" as="geometry"/>
                </mxCell>
                <mxCell id="67" value="Game Loop" style="swimlane;whiteSpace=wrap;html=1;rounded=1;shadow=0;glass=0;sketch=0;strokeColor=default;fontSize=12;fontColor=#F7FFFF;" parent="1" vertex="1">
                    <mxGeometry x="300" y="750" width="360" height="630" as="geometry"/>
                </mxCell>
                <mxCell id="76" style="edgeStyle=none;html=1;exitX=0.5;exitY=1;exitDx=0;exitDy=0;entryX=0.5;entryY=0;entryDx=0;entryDy=0;fontSize=20;fontColor=#F7FFFF;" parent="67" source="70" target="72" edge="1">
                    <mxGeometry relative="1" as="geometry"/>
                </mxCell>
                <mxCell id="70" value="User 1" style="rhombus;whiteSpace=wrap;html=1;rounded=1;shadow=0;glass=0;sketch=0;strokeColor=default;fontSize=12;fontColor=#F7FFFF;" parent="67" vertex="1">
                    <mxGeometry x="65" y="50" width="95" height="100" as="geometry"/>
                </mxCell>
                <mxCell id="88" value="" style="edgeStyle=none;html=1;fontSize=20;fontColor=#F7FFFF;" parent="67" source="72" target="81" edge="1">
                    <mxGeometry relative="1" as="geometry"/>
                </mxCell>
                <mxCell id="72" value="" style="swimlane;startSize=0;rounded=1;shadow=0;glass=0;sketch=0;strokeColor=default;fontSize=12;fontColor=#F7FFFF;" parent="67" vertex="1">
                    <mxGeometry x="57.5" y="230" width="110" height="80" as="geometry"/>
                </mxCell>
                <mxCell id="73" value="" style="whiteSpace=wrap;html=1;rounded=1;shadow=0;glass=0;sketch=0;strokeColor=default;fontSize=12;fontColor=#F7FFFF;" parent="72" vertex="1">
                    <mxGeometry x="15" y="15" width="80" height="50" as="geometry"/>
                </mxCell>
                <mxCell id="77" value="" style="endArrow=none;dashed=1;html=1;dashPattern=1 3;strokeWidth=2;fontSize=20;fontColor=#F7FFFF;entryX=0;entryY=0.5;entryDx=0;entryDy=0;" parent="72" target="78" edge="1">
                    <mxGeometry width="50" height="50" relative="1" as="geometry">
                        <mxPoint x="112.5" y="80" as="sourcePoint"/>
                        <mxPoint x="162.5" as="targetPoint"/>
                    </mxGeometry>
                </mxCell>
                <mxCell id="74" value="&lt;h1 style=&quot;text-align: center; font-size: 20px;&quot;&gt;TURN&lt;/h1&gt;" style="text;html=1;strokeColor=none;fillColor=none;spacing=5;spacingTop=-20;whiteSpace=wrap;overflow=hidden;rounded=0;shadow=0;glass=0;sketch=0;fontSize=12;fontColor=#F7FFFF;" parent="72" vertex="1">
                    <mxGeometry x="22.5" y="22.5" width="65" height="35" as="geometry"/>
                </mxCell>
                <mxCell id="78" value="Update pvpBattle" style="shape=process;whiteSpace=wrap;html=1;backgroundOutline=1;rounded=1;shadow=0;glass=0;sketch=0;strokeColor=default;fontSize=12;fontColor=#F7FFFF;arcSize=13;" parent="67" vertex="1">
                    <mxGeometry x="200" y="380" width="120" height="30" as="geometry"/>
                </mxCell>
                <mxCell id="89" value="" style="edgeStyle=none;html=1;fontSize=20;fontColor=#F7FFFF;" parent="67" source="81" target="86" edge="1">
                    <mxGeometry relative="1" as="geometry"/>
                </mxCell>
                <mxCell id="81" value="User 2" style="rhombus;whiteSpace=wrap;html=1;rounded=1;shadow=0;glass=0;sketch=0;strokeColor=default;fontSize=12;fontColor=#F7FFFF;" parent="67" vertex="1">
                    <mxGeometry x="65" y="360" width="95" height="100" as="geometry"/>
                </mxCell>
                <mxCell id="87" value="" style="edgeStyle=none;html=1;fontSize=20;fontColor=#F7FFFF;" parent="67" source="82" target="70" edge="1">
                    <mxGeometry relative="1" as="geometry"/>
                </mxCell>
                <mxCell id="82" value="Start" style="rhombus;whiteSpace=wrap;html=1;strokeWidth=2;fillWeight=-1;hachureGap=8;fillStyle=cross-hatch;fillColor=#006600;sketch=1;rounded=1;shadow=0;glass=0;strokeColor=default;fontSize=20;fontColor=#F7FFFF;" parent="67" vertex="1">
                    <mxGeometry x="210" y="70" width="120" height="60" as="geometry"/>
                </mxCell>
                <mxCell id="83" value="" style="swimlane;startSize=0;rounded=1;shadow=0;glass=0;sketch=0;strokeColor=default;fontSize=12;fontColor=#F7FFFF;" parent="67" vertex="1">
                    <mxGeometry x="57.5" y="480" width="110" height="80" as="geometry"/>
                </mxCell>
                <mxCell id="84" value="" style="whiteSpace=wrap;html=1;rounded=1;shadow=0;glass=0;sketch=0;strokeColor=default;fontSize=12;fontColor=#F7FFFF;" parent="83" vertex="1">
                    <mxGeometry x="15" y="15" width="80" height="50" as="geometry"/>
                </mxCell>
                <mxCell id="85" value="" style="endArrow=none;dashed=1;html=1;dashPattern=1 3;strokeWidth=2;fontSize=20;fontColor=#F7FFFF;entryX=0;entryY=0.5;entryDx=0;entryDy=0;" parent="83" target="78" edge="1">
                    <mxGeometry width="50" height="50" relative="1" as="geometry">
                        <mxPoint x="112.5" as="sourcePoint"/>
                        <mxPoint x="162.5" as="targetPoint"/>
                        <Array as="points"/>
                    </mxGeometry>
                </mxCell>
                <mxCell id="86" value="&lt;h1 style=&quot;text-align: center; font-size: 20px;&quot;&gt;TURN&lt;/h1&gt;" style="text;html=1;strokeColor=none;fillColor=none;spacing=5;spacingTop=-20;whiteSpace=wrap;overflow=hidden;rounded=0;shadow=0;glass=0;sketch=0;fontSize=12;fontColor=#F7FFFF;" parent="83" vertex="1">
                    <mxGeometry x="22.5" y="22.5" width="65" height="35" as="geometry"/>
                </mxCell>
                <mxCell id="91" value="Repeat" style="rounded=1;whiteSpace=wrap;html=1;strokeWidth=2;fillWeight=4;hachureGap=8;hachureAngle=45;fillColor=#1ba1e2;sketch=1;shadow=0;glass=0;strokeColor=default;fontSize=20;fontColor=#F7FFFF;" parent="67" vertex="1">
                    <mxGeometry x="210" y="490" width="120" height="60" as="geometry"/>
                </mxCell>
                <mxCell id="92" value="" style="edgeStyle=none;html=1;fontSize=20;fontColor=#F7FFFF;" parent="67" source="84" target="91" edge="1">
                    <mxGeometry relative="1" as="geometry"/>
                </mxCell>
            </root>
        </mxGraphModel>
    </diagram>
</mxfile>